<mxfile host="65bd71144e">
    <diagram id="iULMUqrmLh_beRJBwfCI" name="Page-1">
        <mxGraphModel dx="979" dy="565" grid="1" gridSize="10" guides="1" tooltips="1" connect="1" arrows="1" fold="1" page="1" pageScale="1" pageWidth="850" pageHeight="1100" math="0" shadow="0">
            <root>
                <mxCell id="0"/>
                <mxCell id="1" parent="0"/>
                <mxCell id="2" value="Customer" style="swimlane;fontStyle=0;childLayout=stackLayout;horizontal=1;startSize=26;fillColor=none;horizontalStack=0;resizeParent=1;resizeParentMax=0;resizeLast=0;collapsible=1;marginBottom=0;" vertex="1" parent="1">
                    <mxGeometry x="40" y="170" width="140" height="156" as="geometry"/>
                </mxCell>
                <mxCell id="3" value="_id: Objectid" style="text;strokeColor=none;fillColor=none;align=left;verticalAlign=top;spacingLeft=4;spacingRight=4;overflow=hidden;rotatable=0;points=[[0,0.5],[1,0.5]];portConstraint=eastwest;" vertex="1" parent="2">
                    <mxGeometry y="26" width="140" height="26" as="geometry"/>
                </mxCell>
                <mxCell id="4" value="name: String" style="text;strokeColor=none;fillColor=none;align=left;verticalAlign=top;spacingLeft=4;spacingRight=4;overflow=hidden;rotatable=0;points=[[0,0.5],[1,0.5]];portConstraint=eastwest;" vertex="1" parent="2">
                    <mxGeometry y="52" width="140" height="26" as="geometry"/>
                </mxCell>
                <mxCell id="5" value="phone: String" style="text;strokeColor=none;fillColor=none;align=left;verticalAlign=top;spacingLeft=4;spacingRight=4;overflow=hidden;rotatable=0;points=[[0,0.5],[1,0.5]];portConstraint=eastwest;" vertex="1" parent="2">
                    <mxGeometry y="78" width="140" height="26" as="geometry"/>
                </mxCell>
                <mxCell id="6" value="id_document: String" style="text;strokeColor=none;fillColor=none;align=left;verticalAlign=top;spacingLeft=4;spacingRight=4;overflow=hidden;rotatable=0;points=[[0,0.5],[1,0.5]];portConstraint=eastwest;" vertex="1" parent="2">
                    <mxGeometry y="104" width="140" height="26" as="geometry"/>
                </mxCell>
                <mxCell id="8" value="address: String" style="text;strokeColor=none;fillColor=none;align=left;verticalAlign=top;spacingLeft=4;spacingRight=4;overflow=hidden;rotatable=0;points=[[0,0.5],[1,0.5]];portConstraint=eastwest;" vertex="1" parent="2">
                    <mxGeometry y="130" width="140" height="26" as="geometry"/>
                </mxCell>
                <mxCell id="14" value="Sale" style="swimlane;fontStyle=0;childLayout=stackLayout;horizontal=1;startSize=26;fillColor=none;horizontalStack=0;resizeParent=1;resizeParentMax=0;resizeLast=0;collapsible=1;marginBottom=0;" vertex="1" parent="1">
                    <mxGeometry x="340" y="170" width="140" height="134" as="geometry"/>
                </mxCell>
                <mxCell id="15" value="_id: Objectid" style="text;strokeColor=none;fillColor=none;align=left;verticalAlign=top;spacingLeft=4;spacingRight=4;overflow=hidden;rotatable=0;points=[[0,0.5],[1,0.5]];portConstraint=eastwest;" vertex="1" parent="14">
                    <mxGeometry y="26" width="140" height="26" as="geometry"/>
                </mxCell>
                <mxCell id="16" value="datetime: Date Time" style="text;strokeColor=none;fillColor=none;align=left;verticalAlign=top;spacingLeft=4;spacingRight=4;overflow=hidden;rotatable=0;points=[[0,0.5],[1,0.5]];portConstraint=eastwest;" vertex="1" parent="14">
                    <mxGeometry y="52" width="140" height="26" as="geometry"/>
                </mxCell>
                <mxCell id="17" value="number: Number" style="text;strokeColor=none;fillColor=none;align=left;verticalAlign=top;spacingLeft=4;spacingRight=4;overflow=hidden;rotatable=0;points=[[0,0.5],[1,0.5]];portConstraint=eastwest;" vertex="1" parent="14">
                    <mxGeometry y="78" width="140" height="26" as="geometry"/>
                </mxCell>
                <mxCell id="467" value="customer_id: Objectid" style="text;strokeColor=none;fillColor=none;align=left;verticalAlign=top;spacingLeft=4;spacingRight=4;overflow=hidden;rotatable=0;points=[[0,0.5],[1,0.5]];portConstraint=eastwest;" vertex="1" parent="14">
                    <mxGeometry y="104" width="140" height="30" as="geometry"/>
                </mxCell>
                <mxCell id="20" value="n" style="endArrow=open;html=1;endSize=12;startArrow=diamondThin;startSize=14;startFill=1;edgeStyle=orthogonalEdgeStyle;align=left;verticalAlign=bottom;entryX=1.017;entryY=0.064;entryDx=0;entryDy=0;entryPerimeter=0;" edge="1" parent="1" target="2">
                    <mxGeometry x="-0.7868" relative="1" as="geometry">
                        <mxPoint x="340" y="180" as="sourcePoint"/>
                        <mxPoint x="209.99999999999977" y="180" as="targetPoint"/>
                        <mxPoint as="offset"/>
                    </mxGeometry>
                </mxCell>
                <mxCell id="21" value="Product" style="swimlane;fontStyle=0;childLayout=stackLayout;horizontal=1;startSize=26;fillColor=none;horizontalStack=0;resizeParent=1;resizeParentMax=0;resizeLast=0;collapsible=1;marginBottom=0;" vertex="1" parent="1">
                    <mxGeometry x="620" y="400" width="140" height="156" as="geometry"/>
                </mxCell>
                <mxCell id="22" value="_id: Objectid" style="text;strokeColor=none;fillColor=none;align=left;verticalAlign=top;spacingLeft=4;spacingRight=4;overflow=hidden;rotatable=0;points=[[0,0.5],[1,0.5]];portConstraint=eastwest;" vertex="1" parent="21">
                    <mxGeometry y="26" width="140" height="26" as="geometry"/>
                </mxCell>
                <mxCell id="23" value="description: String" style="text;strokeColor=none;fillColor=none;align=left;verticalAlign=top;spacingLeft=4;spacingRight=4;overflow=hidden;rotatable=0;points=[[0,0.5],[1,0.5]];portConstraint=eastwest;" vertex="1" parent="21">
                    <mxGeometry y="52" width="140" height="26" as="geometry"/>
                </mxCell>
                <mxCell id="24" value="unit: String" style="text;strokeColor=none;fillColor=none;align=left;verticalAlign=top;spacingLeft=4;spacingRight=4;overflow=hidden;rotatable=0;points=[[0,0.5],[1,0.5]];portConstraint=eastwest;" vertex="1" parent="21">
                    <mxGeometry y="78" width="140" height="26" as="geometry"/>
                </mxCell>
                <mxCell id="25" value="price: Number" style="text;strokeColor=none;fillColor=none;align=left;verticalAlign=top;spacingLeft=4;spacingRight=4;overflow=hidden;rotatable=0;points=[[0,0.5],[1,0.5]];portConstraint=eastwest;" vertex="1" parent="21">
                    <mxGeometry y="104" width="140" height="26" as="geometry"/>
                </mxCell>
                <mxCell id="470" value="supplier_id: Objectid" style="text;strokeColor=none;fillColor=none;align=left;verticalAlign=top;spacingLeft=4;spacingRight=4;overflow=hidden;rotatable=0;points=[[0,0.5],[1,0.5]];portConstraint=eastwest;" vertex="1" parent="21">
                    <mxGeometry y="130" width="140" height="26" as="geometry"/>
                </mxCell>
                <mxCell id="26" value="Saleiten" style="swimlane;fontStyle=0;childLayout=stackLayout;horizontal=1;startSize=26;fillColor=none;horizontalStack=0;resizeParent=1;resizeParentMax=0;resizeLast=0;collapsible=1;marginBottom=0;" vertex="1" parent="1">
                    <mxGeometry x="340" y="400" width="140" height="104" as="geometry"/>
                </mxCell>
                <mxCell id="29" value="order:Â  Number" style="text;strokeColor=none;fillColor=none;align=left;verticalAlign=top;spacingLeft=4;spacingRight=4;overflow=hidden;rotatable=0;points=[[0,0.5],[1,0.5]];portConstraint=eastwest;" vertex="1" parent="26">
                    <mxGeometry y="26" width="140" height="26" as="geometry"/>
                </mxCell>
                <mxCell id="28" value="quantity: Number" style="text;strokeColor=none;fillColor=none;align=left;verticalAlign=top;spacingLeft=4;spacingRight=4;overflow=hidden;rotatable=0;points=[[0,0.5],[1,0.5]];portConstraint=eastwest;" vertex="1" parent="26">
                    <mxGeometry y="52" width="140" height="26" as="geometry"/>
                </mxCell>
                <mxCell id="468" value="product_id: Objectid" style="text;strokeColor=none;fillColor=none;align=left;verticalAlign=top;spacingLeft=4;spacingRight=4;overflow=hidden;rotatable=0;points=[[0,0.5],[1,0.5]];portConstraint=eastwest;" vertex="1" parent="26">
                    <mxGeometry y="78" width="140" height="26" as="geometry"/>
                </mxCell>
                <mxCell id="32" value="n" style="endArrow=open;html=1;endSize=12;startArrow=diamondThin;startSize=14;startFill=1;edgeStyle=orthogonalEdgeStyle;align=left;verticalAlign=bottom;exitX=0.5;exitY=0;exitDx=0;exitDy=0;" edge="1" parent="1" source="26">
                    <mxGeometry x="-0.8425" y="-10" relative="1" as="geometry">
                        <mxPoint x="360" y="390" as="sourcePoint"/>
                        <mxPoint x="410" y="310" as="targetPoint"/>
                        <mxPoint as="offset"/>
                    </mxGeometry>
                </mxCell>
                <mxCell id="34" value="n" style="endArrow=open;html=1;endSize=12;startArrow=diamondThin;startSize=14;startFill=1;edgeStyle=orthogonalEdgeStyle;align=left;verticalAlign=bottom;exitX=1.008;exitY=0.135;exitDx=0;exitDy=0;exitPerimeter=0;" edge="1" parent="1" source="26">
                    <mxGeometry x="-0.8182" y="10" relative="1" as="geometry">
                        <mxPoint x="490" y="410" as="sourcePoint"/>
                        <mxPoint x="620" y="410" as="targetPoint"/>
                        <Array as="points">
                            <mxPoint x="481" y="410"/>
                        </Array>
                        <mxPoint as="offset"/>
                    </mxGeometry>
                </mxCell>
                <mxCell id="35" value="Supplier" style="swimlane;fontStyle=0;childLayout=stackLayout;horizontal=1;startSize=26;fillColor=none;horizontalStack=0;resizeParent=1;resizeParentMax=0;resizeLast=0;collapsible=1;marginBottom=0;" vertex="1" parent="1">
                    <mxGeometry x="620" y="170" width="140" height="156" as="geometry"/>
                </mxCell>
                <mxCell id="36" value="_id: Objectid" style="text;strokeColor=none;fillColor=none;align=left;verticalAlign=top;spacingLeft=4;spacingRight=4;overflow=hidden;rotatable=0;points=[[0,0.5],[1,0.5]];portConstraint=eastwest;" vertex="1" parent="35">
                    <mxGeometry y="26" width="140" height="26" as="geometry"/>
                </mxCell>
                <mxCell id="37" value="name: String" style="text;strokeColor=none;fillColor=none;align=left;verticalAlign=top;spacingLeft=4;spacingRight=4;overflow=hidden;rotatable=0;points=[[0,0.5],[1,0.5]];portConstraint=eastwest;" vertex="1" parent="35">
                    <mxGeometry y="52" width="140" height="26" as="geometry"/>
                </mxCell>
                <mxCell id="38" value="address: String" style="text;strokeColor=none;fillColor=none;align=left;verticalAlign=top;spacingLeft=4;spacingRight=4;overflow=hidden;rotatable=0;points=[[0,0.5],[1,0.5]];portConstraint=eastwest;" vertex="1" parent="35">
                    <mxGeometry y="78" width="140" height="26" as="geometry"/>
                </mxCell>
                <mxCell id="39" value="phone: String" style="text;strokeColor=none;fillColor=none;align=left;verticalAlign=top;spacingLeft=4;spacingRight=4;overflow=hidden;rotatable=0;points=[[0,0.5],[1,0.5]];portConstraint=eastwest;" vertex="1" parent="35">
                    <mxGeometry y="104" width="140" height="26" as="geometry"/>
                </mxCell>
                <mxCell id="40" value="country: String" style="text;strokeColor=none;fillColor=none;align=left;verticalAlign=top;spacingLeft=4;spacingRight=4;overflow=hidden;rotatable=0;points=[[0,0.5],[1,0.5]];portConstraint=eastwest;" vertex="1" parent="35">
                    <mxGeometry y="130" width="140" height="26" as="geometry"/>
                </mxCell>
                <mxCell id="43" value="n" style="endArrow=open;html=1;endSize=12;startArrow=diamondThin;startSize=14;startFill=1;edgeStyle=orthogonalEdgeStyle;align=left;verticalAlign=bottom;entryX=0.429;entryY=1.038;entryDx=0;entryDy=0;entryPerimeter=0;exitX=0.429;exitY=-0.015;exitDx=0;exitDy=0;exitPerimeter=0;" edge="1" parent="1" source="21" target="40">
                    <mxGeometry x="-0.7734" y="-10" relative="1" as="geometry">
                        <mxPoint x="580" y="390" as="sourcePoint"/>
                        <mxPoint x="740" y="390" as="targetPoint"/>
                        <Array as="points">
                            <mxPoint x="680" y="390"/>
                            <mxPoint x="680" y="390"/>
                        </Array>
                        <mxPoint as="offset"/>
                    </mxGeometry>
                </mxCell>
                <mxCell id="45" value="" style="shape=stencil(lZ3JshzHDUW/5m0rch7WsvwfihBlMkyTCoqyrb8X0nRVd110naJ21FOiOwckcC+G7Lf8w2/vf/r13VsKv3398vmf7/7z4eev79/y395S+vDp/bsvH77av97yj2/5h18+f3n3jy+ff//087f//vWnNXL961+f/70+4b/f5HLdUllSKfzx/79sI//vD3//Nv7jh0/P4/MW4ml82WKA8XHrVcbnCuPDVouMb+l6fJpbHjJ+wuensaV2Gl9xPqlvMcn4QfOp2+yn8W3LBcaXbVQZP2H/7Xh6Po3vW50wPm31/PmD1xv36e7j5xYHjA+6PzFsARYQxzaDCkzQoNi3Ps8CplMdBJqqXExbgzXH40gPgbxVWHQ0HTtvkv2l0jfYJTnfGvvOCmphE8gi0LbaQMCds+1bo22N2zgrqp1Mo2+IW5Ipza3TLtlVPm+rKcuERU/VDFPeAAc9dY/sckS4C0MVadkiuMtmKmS8HVq8Hu8U1e4yKWrfv/0YP7YA82+7ZT7Gz62A1rWtnPfTjCvZLme6ctqP/GJ8O++/OQeyReZqzvPPZf/Gl+Pt/8rnty2BwpmnkM/vuwZejM/nK5NNQ2C9donl8yfup3nSsz6UsK/oYnwT12f6D/fFbMTZlRXWf3Pd4iptB8h3bOOsP6XuM7wYL/e9NLzvpl1nfStjByMX44N8/kRsEPU+1oj7GXftPcanrZCj2cr5vOpx4hfj5b7Xivoc9b7Uxn5siwJtxn7iV+PP51vnVsllqP60sPuQq88/39/G9sTGC3TKWyGPpPvTzALw/p/Pq9UdfF2d71kfmukzzqfJ/Dvat+ig38DPTzuwOsbPu/t1Xm9n+5N2b3KMj4jM0tbP+twT6kPW+9vtvoB+mn0762cvOJ+s9r+bR0P7L1SmN+QOZSvy+Xa/YD5F8UyfaH/qru0HVA+If5rOf0S8781RgYRQvev9tfGkb32/fcf4jP5x6PmOgv5l7Kd5jK/ov8yanc9rNMRXBlijE+h04cPWzzdsdJyRYejcVWCSibYbKHs6mGnkLckhTyYORa3cDExNHFuaEWHWYi7nbZ2mdzSlrmswgUqG9NjEQyBjVMKojhzczKh6RnXq+S7MsnvbK16chgoQvVpoRba14sE9yM4h0HZCdBVq6F0F0B+0nQUfAn03gVfBleYEyCOkqUR6DjR5OarNmIwZs3NSJlAIhBf1mpNvXK47C34SoJM2ViJGwATIzBgtmU6AgnTFMe8lAN9QnJlZAkTNsmLfO4Gi4YY7gabs4G4NfQfH3yswnNXgba3hhfINMDPGN6rbpU4IIDm7NBDy1wNBfae2Vhe6WvcBrLdxDjX3A623kQ4V6GjIjHWo8h0O4DWOiXtI8tmQwRqMdwhTNgFyKEY8qjOVCU7amIdwTbPepBpGJUJQgUxT6s4uFV60navzQGS9jU10mVLGWPSDTjwJFFi08QNBlObYiYF1FwY1gQS6ZAyhyhri7pNeC1QlbTMidOguujwDwp/eNWJviAy3daghMwGK2RutED892MwYr5BdGhwpMGKhAubEYA0j6QUyKF3oG/IerX4C9xS/HgecemYPcIHW5zl60uHgbMaiGraqTovubtGRBYZGaO1kKKRuihDOa7CzJyNgAsqJJ+JWU2YJ8pg6FgraB+UPS+Hh4ExgnA+uMwydLs5jAhEWvfiIfENFZGwC4kXNjlDkaVkhofYZfdwiMDKlhLFyExDM1yO6LDO9El0089xo0S7cvBwAC8zzGszFDBIoar1XQIwOzkXwTYCwxnQpAvOrFGI0JyvQoVXMz5qAAF1z9RQUNoEuU+JkogkIIjO4QmFMgyIS522cEJ3NBT4Dut3pIkWG0Qisz6bUcqFAXoNg79pZoOuNq5xcWFTVCQRSvq7prFrZzHQlfgauCbeawHQJA1S+gwwfAont0lD1rpHt0nA5hsDKZwJnM1Mmktc1JclSMWl60ItDoKNT9Ntq3JHgzzo4STzVHdRdCWhmq9x9g8RmjDCjbW27JT0EEqKZdadlDZEdSlW3W8KdIcsu3YletCgyzmPH+1cCohq5YUJgZgW6uWKoxQSCTIk5kPfTOSPxMwFJouUjlnKFNQSGrqw8gxOJOqQD1F0BLImTp8FWw9VcJUb3JiAHl5gej6mmMplthRu3GI98w5F9v4LSggRWfJSQ8VDHnuwoiTQ5M7MSkLCtiyLJogPS4+GMQDxSGFcC4hRXDQ9zIAnFx84pmuJKozhHZgJaD9b44LL66VjvqKXQslgwbW0kbMqiM/o4E4iugIwSj8baBGCZAC26u3TCygxRXGO4RQesfTASJro0EV/15uKCu6O/Gi/QZCBd7w54c+7UCFgSWok0dEWKBNjzel2yu/EBRIUAFRGxkS8tJsG7b9xLDpjrWI16ubraQrVjXVFV5vhk3cHBY3ym8VmLGThX3JLmWhN6cmMskg5ImMYx/qEOBGujqktSpj27fhVHl5AB10ospC9GCEFtdRmZiABywfYm4ylxYKjdzYfgYxkaF4rIaotLG9yMrxqtjghyDE+PouNp/snZdKQtBo6bjh+UZ5y7Oj7pA9XRj71Q4Ek/wd6upKHqM6VtDBhL8WFGj7SAtCBlrtOvGtvJWBubfTEn6kN2gfyM4a/sKqwzxpsN1nfdH7Jv2WWEMieqs+pzQpS/Pj/JeIJ+Nr7p5yde71T9oYh/LhpOjOiPbHxXe4K1WnUH20/j6X5V1QeuIVlZeb1fBNZt/NT9JFBpTDWov6AY3Pp8vV9Y21s1E5z5fKsWp3HtpI1XZnx3v5rOh/yFL6PImCXLrlg6Yzo0u2K/jIRy3S/VH9TPrGmNhHh7zUf4J+LJvzzeFfsFDDOYv5BiWo7r5aH5t8BlMlPxZ8BeiuJy9gH5RUmKJwOebykasubaScMnQedDeK90xcOBaz9ds0nA6LPhN3deZJ9XXDfr/lCRRdJi1ICxasO3QmnDTrBej3f2LSAeqC54zvpZp+JbrmVuUf1jRP1pLrQY0X6utJGOJ3y4yjfUX9B9b67mK6O/W6XgDv8Q/w0aH8jo37srTyyIP3vSMCdXqxh/F/xZsbepF7WfDe9vr2ofGvqv3lwxPPLH3rWZqCPe664PdSBefaTtH/EZ7HUL6t8nx+2C+t9V3AwLeJQ2PIWwSON8SUhMe4znKjKoV+wmpOtjjxlB5Ypuuj5OQnErfipruKlSaXrMsWEca7jEaOzcpNhdZHCgZx1DK5PjxDTNGK7vkH3fCt53FSBjbQKSm3r0xrwUmMG1fias9TQBgSuJe7VWFZhE+wvnm1230I1FWkUnsuiOCYhVdHJW7zSQE8ykMcjVMMrfoE6Ho8zTtSBmDmvNrGGhnLABYjoeupg+HZxrqM83XSKu7Saza1j1FxKaYFu/qiNcJhVVw3UGlwMeXglINNLwNuZqh0sfczx1FS7LN3CAZTqHtSA6XdGpDHa1m5LyHd2fh0DDJo7pspClc7GDA1VlcKGAK2W+qY6IIWgdsDEBqhmcU4G2UQHMgU+9cpW7ada+Suri9qglm2XsgZIdJvCiE5YPQqJ7tbEVGApnaudahOEWPXYEdSUg9t4oyo1AknZSfiljVc6cVcNIzY3Z0Gq4iA2l03XstXRXhaVZs8ymzxXCrEp5Uo3m1lC5fK65msHG1Q5NMx+tY6h7FejJGhhhzfqishIfsnDB9EXn2CtqdSi3YvvKyn6DsIoC136DsLJWnXR+SWi6iu9+U1SV3ZQqV7gmNQKL1dEupRe1zBQ1fjQyHgI3JU9RCYQJYMnT8WTBIcCPHqx67PM5jJuqE5d5NmqXiAQ5PmDULnFdvDbuZq6cccUIxtQoO2O8TEo8Bj+tMFw6ajE14seu0WpwQMD2RNzufY+FPLcxuENuBPcNE01ldzTLlIXKth66+SRAVQOr6kRafSN3BDXXc5S4LsRVMJkAFp64V15WbzBVbmSNIswjV3gVGhMzs0gLnYPL1S97zp1Zklx+kJar6KGw11nxKYrW3Ek3flvI+bibZuJWNJqzWA5FTLOLeHVExs3VeT0Q1GuB8Ko3mILi81U/J2yrYUjhNIZksXmya1mACZAhq811yE0Mw1X34N/C+9STWhSGzokkaKUakgpQbLxG17nLXU2rEbc5AarmmPr0yIOpvRZwzcRPTO21hOtXvpXwLdE3k8ovtAkFoutwZly5SsK9AKVhHc+aHGfOvo118qNYVVn+0iauRPBnTTGpnF5sK1XR5qC1FHPikxlpuq7UyS9vDeeDJnrqR7Xjk2Wik07VPQYx0LomV91/YywfEdkn+01cMXn7ffPcRNAwwk1bdxwa719UjR+rDE6A8H181aWNz680zSvPgoni6ApDJmf6TEA7zRNe0ehKKybX8sTk3gy9eRgsqnqvDACdg7NLJoDETIPAg99RmJqdXWCdMhaafbzrh1Y9GhyqdHGWxXAIXTlKVhn6aCrBCBFROFcdODKutypmMDpEkLi86Jym9LKz8SNwOaR7umvys7xqila+lh6yeRU4wKfTtI+7Ye7nKFZ9Cn3gU1ZuPuXmKUDfz0zBzOD2h5+qdOk3I00U+wxajWGciT9f45IcjHWeo3G0N+jbt6ueHvQtuKcPKwZWg8aRVpgU7ntwTwFmjGwFrR5rCUOYLivRAkb/3HwqsxD3ysBNtD0on11PYeL8xb49aM+VPsj8M4LMoDnDyumzoC7VKAzh6qD2vHAnWHRPo44beyIw5VGv/332pFR+8811pxT01/5pVy6PTS5BGm+etpRYc+GHNpKGQ/Lk8kmt3jNihOXtup+5Y5wsu2qthuV+vrO2oD4XzeBltieOumZ+qrsqOV6FBTheImSJwyAuJZ/6DV7Sbh9+Xr1pCihxfLm7YpCC9m2o/idOxA0lxTftLFPve7op7HCP9PNT4+utd6lzGpjRjdEVRnE8PbrXbyO/AhNdBfFiQoSBsmZDY+F3KotalcioaT36L9+QWKC5rq7Idt3/WEJAx2fnquyQgXHQhC73lqeo7b0dDaO31I0NtbOMDXfU7q3ctIrEYTEl8cT8omXXUE/BOt80FNlzHW52SDFzX4J79Pqmr8LV7d70VRQNPN32wQQ3nvtUkvblYDDP9a0m/j2bqsgs3YUj9ZELDBSsPjzdf+zzqw55YF7y1Xgi2tm93nvTt1dd7RrrmzNx/Mjaq74lSrb95d8ruh1v/3j8ONIvHz5+/PbbSs//X39Myf707YeY8o9/Ag==);lineShape=1;" vertex="1" parent="1">
                    <mxGeometry x="243.6965058415817" y="81.40756016511318" width="338.57569287150034" height="511.22052266330803" as="geometry"/>
                </mxCell>
            </root>
        </mxGraphModel>
    </diagram>
</mxfile>